<svg version="1.1" id="Layer_1" xmlns="http://www.w3.org/2000/svg" xmlns:xlink="http://www.w3.org/1999/xlink" x="0px" y="0px"
	 width="100%" viewBox="0 0 3354 680" enable-background="new 0 0 3354 680" xml:space="preserve">
<path fill="#000000" opacity="1.000000" stroke="none" 
	d="
M3355.000000,448.000000 
	C3355.000000,525.661194 3355.000000,603.322449 3355.000000,680.987732 
	C2237.083984,680.991821 1119.167847,680.991821 1.125929,680.991821 
	C1.125929,454.433258 1.125929,227.866440 1.125929,1.000000 
	C486.365997,1.000000 971.732056,1.000000 1457.851074,1.369160 
	C1456.097900,2.167406 1453.565918,2.481550 1451.090576,3.045244 
	C1439.636963,5.653626 1428.140869,8.104650 1416.767944,11.031861 
	C1393.747681,16.957029 1372.285645,26.733747 1351.876343,38.731537 
	C1333.845825,49.330956 1316.355957,60.861019 1301.207764,75.413971 
	C1286.738525,89.314598 1271.855469,102.951988 1258.837891,118.147415 
	C1246.580078,132.455963 1236.210083,148.437515 1225.621216,164.096649 
	C1220.347290,171.896042 1216.442261,180.621109 1211.637451,189.024063 
	C1211.316528,189.660324 1211.276123,190.199951 1211.235596,190.739594 
	C1211.675171,190.424744 1212.114624,190.109924 1212.829712,189.561584 
	C1223.645630,174.809586 1233.568115,159.783951 1244.929199,145.938843 
	C1253.473755,135.526031 1263.507202,126.232239 1273.540894,117.174934 
	C1282.329468,109.241730 1291.816162,102.022377 1301.400269,95.045067 
	C1314.313110,85.644447 1328.439575,78.336639 1343.087402,71.916649 
	C1363.560791,62.943413 1384.966553,57.801594 1407.120972,56.132961 
	C1422.544312,54.971302 1437.958374,56.320427 1453.063354,60.009865 
	C1477.733154,66.035583 1500.029053,76.969841 1519.096436,93.742752 
	C1539.543213,111.729073 1554.986328,133.505234 1565.963989,158.506729 
	C1578.522461,187.108246 1584.896851,217.164795 1586.810669,248.129868 
	C1587.614868,261.144226 1586.958130,274.341248 1585.837646,287.358124 
	C1584.528564,302.567627 1583.066528,317.911041 1579.762329,332.772034 
	C1572.282959,366.411865 1560.633423,398.605774 1544.121948,429.055878 
	C1530.926025,453.391083 1515.539307,476.154388 1496.771729,496.354553 
	C1484.792969,509.247772 1471.711792,521.349060 1457.901245,532.256165 
	C1434.519043,550.722900 1408.396973,564.462036 1379.665283,573.062500 
	C1363.190430,577.993958 1346.296997,580.094299 1329.292603,580.750732 
	C1320.608521,581.085999 1311.819946,579.080627 1303.097656,577.981995 
	C1290.397583,576.382263 1278.344116,572.517578 1266.703735,567.272522 
	C1244.710571,557.362549 1225.897705,543.366943 1210.217529,524.896301 
	C1200.088745,512.965027 1191.906982,499.895630 1184.733643,486.130829 
	C1182.510986,481.865814 1181.305054,477.070953 1179.509888,472.181580 
	C1185.208862,472.181580 1189.985718,472.181580 1194.475708,472.181580 
	C1203.565552,489.675842 1213.840576,505.870209 1227.907959,519.580811 
	C1238.021118,529.437561 1248.675781,538.340637 1261.155518,545.042053 
	C1277.927246,554.048157 1295.400879,561.053772 1314.607056,561.887695 
	C1329.078369,562.516052 1343.750122,563.262024 1358.053589,561.580872 
	C1370.337036,560.137024 1382.436890,555.945374 1394.245972,551.886597 
	C1422.108643,542.310181 1446.569824,526.611023 1468.259521,506.977844 
	C1489.691406,487.578003 1508.469971,465.807831 1523.747559,440.988007 
	C1536.788330,419.802185 1548.110229,397.852386 1555.807007,374.282074 
	C1561.179565,357.829315 1564.869873,340.812073 1568.975586,323.965118 
	C1572.708984,308.646423 1574.206055,293.016113 1573.968018,277.255463 
	C1573.800659,266.168579 1573.906494,255.031021 1572.845947,244.016678 
	C1571.682251,231.932129 1569.979126,219.815460 1567.330933,207.976776 
	C1562.900269,188.170425 1555.666748,169.335754 1545.342529,151.729553 
	C1533.083496,130.823593 1517.910767,112.749054 1497.731323,98.887459 
	C1475.335938,83.503685 1450.568237,75.296364 1423.756470,73.101166 
	C1408.946411,71.888603 1394.070190,73.147766 1379.597046,76.312897 
	C1359.624878,80.680565 1340.637329,87.923019 1322.694214,97.963310 
	C1294.201050,113.906960 1270.030151,134.996857 1249.002075,159.687088 
	C1234.026123,177.271286 1221.251465,196.491928 1210.735352,216.683655 
	C1206.904419,216.683655 1203.504517,216.683655 1199.693237,216.683655 
	C1202.273926,210.532730 1204.678101,204.802658 1207.362549,198.975952 
	C1207.683594,198.339691 1207.723999,197.800049 1207.764404,197.260391 
	C1207.324829,197.575180 1206.885254,197.890015 1206.167969,198.441345 
	C1203.390869,203.159500 1200.475464,207.468170 1198.518555,212.175308 
	C1196.837769,216.217972 1194.463989,217.152573 1190.331787,217.102142 
	C1171.335815,216.870239 1152.335327,216.995010 1133.336548,217.010101 
	C1131.914551,217.011246 1130.492676,217.156219 1129.345459,217.219238 
	C1129.345459,302.428711 1129.345459,387.163849 1129.345459,472.000000 
	C1144.017090,472.000000 1158.345215,472.123383 1172.668335,471.912659 
	C1176.219604,471.860413 1177.803833,472.999390 1179.090698,476.310364 
	C1183.383301,487.355164 1187.672852,498.436127 1192.730957,509.140686 
	C1201.381592,527.448486 1211.659424,544.875488 1225.474731,559.812683 
	C1235.587158,570.746338 1245.743530,581.844360 1257.176758,591.301636 
	C1272.965210,604.361450 1290.911011,614.356018 1310.181274,621.575745 
	C1329.469727,628.802307 1349.438965,633.919312 1370.003418,634.743713 
	C1385.617798,635.369690 1401.435669,634.587585 1416.959106,632.729370 
	C1430.967773,631.052429 1444.886475,627.735107 1458.511963,623.944641 
	C1480.890991,617.718933 1501.664917,607.557007 1521.651611,595.779724 
	C1541.733521,583.946350 1560.237671,569.951355 1577.235107,554.080750 
	C1587.164185,544.810120 1596.624512,534.957947 1605.559692,524.724670 
	C1614.525391,514.456360 1622.920898,503.640625 1630.957153,492.620483 
	C1647.501099,469.933655 1660.814087,445.402832 1672.135864,419.692780 
	C1681.019653,399.518646 1688.222900,378.791840 1693.879761,357.566254 
	C1700.495361,332.744110 1704.426392,307.346832 1705.785767,281.724182 
	C1706.609253,266.201324 1705.380859,250.565948 1704.989502,234.983276 
	C1704.546509,217.348190 1700.954712,200.196899 1697.032104,183.078400 
	C1690.299683,153.697403 1679.497681,125.907913 1662.778198,100.849098 
	C1653.601562,87.095299 1642.880981,74.276901 1631.972046,61.810738 
	C1625.889282,54.859615 1618.217651,49.207714 1610.867920,43.475651 
	C1596.063843,31.929903 1579.799561,22.829779 1562.297852,16.001762 
	C1545.573608,9.476932 1528.486450,4.363205 1510.468018,2.906537 
	C1509.930786,2.863108 1509.487305,1.661565 1509.000000,0.999990 
	C2124.218506,1.000000 2739.437256,1.000000 3355.000000,1.000000 
	C3355.000000,104.032478 3355.000000,207.065338 3354.657715,310.837769 
	C3353.878174,310.749817 3353.225830,309.968689 3353.036133,309.087830 
	C3349.664551,293.435516 3340.409180,282.831665 3325.862305,276.324890 
	C3313.489746,270.790649 3300.318848,269.601440 3287.178955,269.159393 
	C3268.545898,268.532532 3249.859863,268.523041 3231.228516,269.172668 
	C3219.345215,269.587006 3207.224365,270.455841 3195.730957,273.257935 
	C3171.678955,279.121735 3158.407227,295.481171 3158.117188,320.186737 
	C3157.671387,358.155701 3157.966309,396.133789 3158.044434,434.107819 
	C3158.053711,438.693481 3158.279053,443.346375 3159.070312,447.851074 
	C3162.624512,468.082306 3174.582275,479.081329 3192.733154,484.974701 
	C3206.642578,489.490906 3221.129150,489.834625 3235.522705,489.895874 
	C3255.103027,489.979156 3274.689697,489.460632 3294.266113,488.922089 
	C3300.121094,488.761017 3306.056396,488.158905 3311.772217,486.917267 
	C3332.822998,482.344238 3348.714844,471.905640 3353.132568,449.024994 
	C3353.218506,448.579712 3354.354004,448.337158 3355.000000,448.000000 
M2132.529053,257.838287 
	C2132.239502,257.632568 2131.949951,257.426849 2131.733398,256.904114 
	C2131.736572,256.583679 2131.784180,256.270660 2132.572754,255.755020 
	C2132.334473,254.513565 2132.096191,253.272125 2132.152344,251.296677 
	C2132.082031,237.173111 2132.011719,223.049545 2132.724609,208.627365 
	C2132.814941,204.744843 2132.961426,200.861496 2132.905518,196.981094 
	C2132.900146,196.604538 2131.640869,196.246063 2130.155518,195.651718 
	C2129.059082,195.434525 2127.962891,195.029404 2126.866211,195.027756 
	C2102.881104,194.991928 2078.895996,194.996124 2054.910889,195.019363 
	C2053.982178,195.020264 2053.053711,195.286392 2052.000000,195.448135 
	C2052.000000,196.877487 2052.000000,198.033920 2052.000000,199.190353 
	C2052.000000,293.631592 2051.999512,388.072815 2052.007080,482.514038 
	C2052.007080,483.676147 2052.110840,484.838287 2052.024170,486.661957 
	C2052.071533,487.108063 2052.118652,487.554199 2052.060059,488.866180 
	C2053.337402,489.244110 2054.613525,489.948059 2055.892090,489.951630 
	C2079.379395,490.017700 2102.866943,490.021942 2126.354248,489.949799 
	C2127.904053,489.945038 2129.451416,489.222290 2131.865967,488.939819 
	C2132.243164,488.169220 2132.948730,487.398773 2132.949219,486.627991 
	C2132.958252,470.418976 2132.888184,454.209900 2132.978271,437.092987 
	C2132.930176,433.719330 2132.881836,430.345703 2132.979736,425.956757 
	C2132.571289,424.103302 2132.162842,422.249847 2131.728516,420.362823 
	C2131.728516,420.362823 2131.607422,420.270050 2131.589600,420.102722 
	C2131.589600,420.102722 2131.515381,419.783661 2132.488770,419.462646 
	C2132.160645,418.380615 2131.832520,417.298553 2131.523438,416.068878 
	C2131.523438,416.068878 2131.662598,415.799652 2132.338623,415.535980 
	C2132.501709,414.825104 2132.664551,414.114197 2132.966064,412.690277 
	C2132.912354,411.004852 2132.858887,409.319458 2132.728271,406.954407 
	C2132.377930,406.705811 2132.027588,406.457184 2131.292236,406.476746 
	C2131.292236,406.476746 2131.629639,406.802734 2132.350586,406.565979 
	C2132.502930,405.606567 2132.655029,404.647125 2132.872803,403.426300 
	C2132.872803,403.426300 2132.803955,403.165741 2132.968994,402.801392 
	C2133.016846,402.526031 2132.971680,402.266937 2132.957031,401.498260 
	C2132.915771,401.322968 2132.874756,401.147675 2132.977783,400.100983 
	C2132.640869,397.427551 2132.303955,394.754120 2131.350830,392.115326 
	C2131.363037,392.320648 2131.375488,392.526001 2132.293701,392.402557 
	C2131.986572,391.691681 2131.679688,390.980804 2132.057373,389.656372 
	C2132.213135,388.510620 2132.496094,387.365936 2132.505859,386.218933 
	C2132.683105,365.481384 2132.849121,344.743652 2132.968994,324.005707 
	C2133.024658,314.403290 2133.082275,304.798370 2132.910156,295.198669 
	C2132.859863,292.389069 2132.023193,289.593567 2132.518555,286.472778 
	C2132.191162,285.051300 2131.863770,283.629791 2132.073730,281.556000 
	C2131.887695,278.298553 2131.701660,275.041107 2132.488770,271.462646 
	C2132.160645,270.380615 2131.832520,269.298553 2132.366455,268.126801 
	C2132.520508,265.330231 2132.674316,262.533661 2132.929443,259.034790 
	C2132.843506,258.814331 2132.757812,258.593872 2132.529053,257.838287 
M2447.984619,271.851624 
	C2449.068359,276.418060 2450.001465,281.026489 2451.260254,285.544250 
	C2460.117676,317.333374 2469.169434,349.068726 2477.911377,380.889404 
	C2487.883789,417.189026 2497.599121,453.559326 2507.453125,489.998840 
	C2538.866211,489.998840 2570.002930,489.966522 2601.139404,490.050690 
	C2604.128906,490.058777 2604.449219,488.296600 2605.031250,486.124390 
	C2609.385010,469.870270 2613.791748,453.629944 2618.254883,437.405396 
	C2624.133301,416.035858 2630.125977,394.697754 2635.982178,373.322266 
	C2643.079346,347.418518 2650.135254,321.503296 2657.102051,295.564270 
	C2659.284424,287.438507 2661.119385,279.219482 2663.799805,270.614410 
	C2662.910645,270.076416 2662.023438,269.071503 2661.132324,269.068451 
	C2636.435303,268.983521 2611.738037,268.970093 2587.041504,269.085388 
	C2585.746826,269.091431 2584.458252,270.334167 2583.021973,271.834137 
	C2582.681152,273.748810 2582.377930,275.671051 2581.993896,277.577026 
	C2578.792236,293.466553 2575.548828,309.347748 2572.369385,325.241791 
	C2568.553467,344.319916 2564.792725,363.409088 2560.997803,382.491455 
	C2559.506836,389.988525 2557.988525,397.480194 2556.434570,405.214142 
	C2555.683594,404.679596 2555.267578,404.542877 2555.223145,404.329041 
	C2551.829102,387.987854 2548.399658,371.653595 2545.114746,355.290314 
	C2541.667969,338.120209 2538.446289,320.904663 2534.962158,303.742371 
	C2532.739990,292.797150 2530.219727,281.912506 2527.939453,270.134674 
	C2526.835693,269.756561 2525.732910,269.051208 2524.628174,269.048401 
	C2499.937256,268.985565 2475.245850,268.998901 2450.554688,269.004303 
	C2449.562012,269.004517 2448.569580,269.067780 2447.576904,269.101624 
	C2447.677734,269.746887 2447.778320,270.392151 2447.984619,271.851624 
M822.000000,157.500000 
	C822.000000,262.239594 822.000000,366.979218 822.000000,471.749725 
	C853.577515,471.749725 884.642822,471.749725 916.000000,471.749725 
	C916.000000,469.701477 916.000000,467.900055 916.000000,466.098602 
	C916.000000,409.282257 916.057312,352.465759 915.901367,295.649841 
	C915.887451,290.587128 918.571045,283.869507 925.338135,282.492584 
	C931.330688,281.273285 937.945557,281.687775 944.039551,282.768799 
	C950.926941,283.990601 951.999695,286.290253 951.999756,293.394440 
	C952.000305,351.043884 952.000000,408.693298 952.000000,466.342743 
	C952.000000,468.122040 952.000000,469.901306 952.000000,471.772644 
	C983.531250,471.772644 1014.596497,471.772644 1045.493652,471.772644 
	C1045.755737,471.417053 1045.933594,471.288422 1045.932983,471.160553 
	C1045.630127,403.931488 1045.676636,336.697662 1044.779785,269.476410 
	C1044.510498,249.289078 1033.728516,234.363190 1015.539490,225.184692 
	C1002.584534,218.647324 988.391174,217.981033 974.361328,217.142044 
	C966.660400,216.681534 958.742859,216.915436 951.163818,218.227539 
	C944.511169,219.379242 938.078308,222.188034 931.759583,224.779694 
	C924.459961,227.773651 920.260437,234.184708 915.739624,241.925095 
	C915.739624,204.038208 915.739624,167.621445 915.739624,131.287201 
	C884.348206,131.287201 853.282532,131.287201 822.000000,131.287201 
	C822.000000,139.881775 822.000000,148.190887 822.000000,157.500000 
M228.000000,368.500000 
	C228.000000,378.162567 227.739136,387.834198 228.073318,397.485199 
	C228.407913,407.148834 228.466629,416.950775 230.193329,426.409637 
	C233.411499,444.038727 244.281006,456.248047 260.370087,463.692139 
	C272.426575,469.270386 285.528931,471.610199 298.541901,471.771576 
	C329.105469,472.150482 359.683777,471.320038 390.256439,471.009308 
	C400.417053,470.905975 410.125244,468.651398 419.538300,464.989166 
	C435.745209,458.683929 447.846649,448.194275 452.461548,430.889435 
	C454.121582,424.664673 454.585693,418.066559 455.082825,411.599396 
	C455.760040,402.789612 455.946106,393.942078 456.332397,385.341156 
	C425.901947,385.341156 396.503693,385.341156 367.000000,385.341156 
	C367.000000,388.007233 367.000000,390.332550 367.000000,392.657837 
	C367.000000,395.156830 367.075653,397.658600 366.984436,400.154236 
	C366.784790,405.615723 362.481262,410.871094 357.732056,410.947205 
	C347.238953,411.115387 336.739227,411.122711 326.246460,410.944702 
	C321.364563,410.861877 317.146790,407.354309 317.074158,403.202789 
	C316.871002,391.593231 317.003418,379.977814 317.003418,367.988281 
	C363.481750,367.988281 409.541809,367.988281 456.000000,367.988281 
	C456.000000,366.005127 456.000000,364.377960 456.000000,362.750763 
	C456.000000,336.594604 456.054352,310.438232 455.954254,284.282471 
	C455.934113,279.031677 455.742554,273.716797 454.918182,268.544983 
	C451.277924,245.707504 438.399231,230.496475 416.486969,223.005966 
	C403.726013,218.643738 390.378784,217.508011 377.109344,217.156525 
	C355.300110,216.578857 333.451263,216.546600 311.644897,217.176392 
	C299.302185,217.532852 286.859985,218.879318 274.734192,221.199356 
	C259.250305,224.161911 245.976364,231.481201 237.133789,245.337692 
	C230.750580,255.340271 228.238754,266.506104 228.110870,278.037170 
	C227.780182,307.854858 228.000000,337.678650 228.000000,368.500000 
M621.000000,365.500000 
	C621.000000,342.336578 620.980774,319.173157 621.010193,296.009766 
	C621.020813,287.664856 623.412354,283.451416 630.395752,282.401672 
	C636.397339,281.499512 642.722412,281.673279 648.766296,282.448242 
	C654.150452,283.138672 656.990356,287.757233 656.997681,293.454987 
	C657.007263,300.890656 657.000000,308.326355 657.000000,315.727661 
	C687.280884,315.727661 717.016968,315.727661 746.001282,315.727661 
	C746.001282,299.567108 746.962708,283.612579 745.769653,267.820831 
	C744.096558,245.675629 730.658325,231.909576 710.539612,223.988373 
	C696.830811,218.590881 682.342773,217.192612 667.949219,217.194244 
	C638.029358,217.197617 607.971985,214.895432 578.239441,220.081497 
	C565.691162,222.270218 554.075928,227.213760 544.634949,235.990601 
	C533.186890,246.633316 528.302673,260.594360 528.147522,275.723358 
	C527.720520,317.380219 527.954651,359.044403 528.044800,400.705475 
	C528.059753,407.617737 528.296814,414.570435 529.071106,421.432281 
	C531.128296,439.663818 540.567627,453.188171 556.609619,461.845764 
	C569.985779,469.064667 584.825195,471.429474 599.690308,471.822662 
	C624.336487,472.474518 649.026978,472.492920 673.669373,471.771881 
	C684.428589,471.457092 695.432861,469.756622 705.772766,466.770386 
	C732.725098,458.986267 747.233826,439.426208 747.013794,410.360840 
	C746.929260,399.196259 747.009460,388.030487 746.986755,376.865326 
	C746.984192,375.606232 746.799866,374.347534 746.719543,373.336731 
	C716.589600,373.336731 686.852783,373.336731 657.000000,373.336731 
	C657.000000,381.163544 657.241699,388.665985 656.873413,396.138367 
	C656.738098,398.882233 655.795227,402.070984 654.105896,404.151703 
	C650.696350,408.351196 629.250366,408.145660 624.954834,404.550751 
	C621.207336,401.414490 621.188782,397.114105 621.074829,392.994476 
	C620.830688,384.169067 621.000000,375.332184 621.000000,365.500000 
M2715.000000,346.500000 
	C2715.000000,370.992889 2714.911865,395.486298 2715.045410,419.978455 
	C2715.094971,429.067932 2715.151123,438.208679 2716.103027,447.231262 
	C2718.095459,466.116852 2728.669189,478.812073 2746.425781,484.859528 
	C2760.967285,489.811920 2776.082031,490.069855 2791.465088,489.268341 
	C2806.522461,488.483826 2817.897705,482.596283 2827.081543,469.927185 
	C2827.081543,477.013397 2827.081543,483.363129 2827.081543,489.677673 
	C2854.309570,489.677673 2881.032227,489.677673 2907.663086,489.677673 
	C2907.663086,415.975769 2907.663086,342.596344 2907.663086,269.366486 
	C2881.268066,269.366486 2855.211670,269.366486 2828.823975,269.366486 
	C2828.823975,277.258759 2828.823975,284.788147 2828.823975,291.522095 
	C2825.383545,287.219513 2822.291260,281.913666 2817.883789,278.146454 
	C2809.308350,270.816406 2798.366943,269.520386 2787.587891,269.124786 
	C2779.518799,268.828644 2771.268066,268.857422 2763.354004,270.223633 
	C2754.822510,271.696411 2745.935547,273.643860 2738.359131,277.598083 
	C2721.833252,286.223389 2715.737549,301.662048 2715.056885,319.509796 
	C2714.727051,328.161346 2715.000000,336.835876 2715.000000,346.500000 
M1898.500000,399.000000 
	C1927.250000,399.000000 1955.999878,399.000000 1985.000000,399.000000 
	C1985.000000,374.560028 1985.135376,350.755249 1984.907471,326.954010 
	C1984.848267,320.771606 1984.210693,314.475983 1982.869751,308.447937 
	C1979.503052,293.312561 1970.391357,282.867615 1956.135742,276.470001 
	C1943.589722,270.839600 1930.289062,269.609161 1916.979980,269.156250 
	C1898.674683,268.533386 1880.315063,268.517975 1862.011963,269.171143 
	C1849.958374,269.601257 1837.870239,271.124634 1825.970093,273.164795 
	C1815.645142,274.934845 1806.538696,280.212433 1799.623291,288.079803 
	C1790.985352,297.906738 1787.949707,309.964142 1787.974976,322.940674 
	C1788.046387,359.760040 1787.964111,396.579712 1788.044312,433.399048 
	C1788.054688,438.152557 1788.265015,442.974670 1789.075806,447.644623 
	C1791.673950,462.606659 1799.405762,473.952698 1813.142212,481.060730 
	C1827.546631,488.514313 1843.269775,489.492828 1858.857788,489.811371 
	C1879.763062,490.238556 1900.694946,489.149689 1921.616699,489.076843 
	C1932.206909,489.039948 1942.463867,487.607452 1952.375244,483.979797 
	C1965.332275,479.237305 1975.777466,471.424286 1980.372559,457.932495 
	C1982.437744,451.868652 1983.286621,445.296051 1983.964722,438.877899 
	C1984.824585,430.739746 1984.949463,422.523895 1985.392578,414.316711 
	C1959.031006,414.316711 1933.642334,414.316711 1907.999756,414.316711 
	C1907.999756,418.775269 1908.101807,422.922791 1907.975830,427.063354 
	C1907.787109,433.267029 1904.387573,436.832947 1898.257202,436.958038 
	C1890.097046,437.124573 1881.924927,437.181763 1873.769653,436.922241 
	C1869.689331,436.792389 1865.393433,435.173706 1865.174438,430.573700 
	C1864.678955,420.165771 1865.018677,409.718079 1865.018677,399.000000 
	C1876.227539,399.000000 1886.863770,399.000000 1898.500000,399.000000 
M2286.500000,269.000305 
	C2274.149414,269.667542 2261.695801,269.584808 2249.485107,271.268097 
	C2241.463379,272.373932 2233.210693,274.941864 2226.082031,278.760559 
	C2209.376953,287.709778 2202.231445,303.230591 2202.157227,321.435059 
	C2201.990479,362.352051 2202.235352,403.282623 2203.199707,444.186798 
	C2203.620605,462.046783 2213.810791,474.379425 2229.854980,482.067810 
	C2243.365479,488.542023 2257.959961,489.477875 2272.391602,489.793823 
	C2293.632324,490.258789 2314.902588,489.204926 2336.162109,489.052826 
	C2347.398193,488.972412 2358.178223,487.225586 2368.708496,483.151062 
	C2379.260498,479.068054 2387.343262,472.240448 2392.727295,462.515167 
	C2401.130859,447.335144 2398.734619,430.680389 2398.963135,414.297913 
	C2373.077148,414.297913 2347.685791,414.297913 2322.000000,414.297913 
	C2322.000000,416.732910 2322.000000,418.873199 2322.000000,421.013489 
	C2322.000000,423.346375 2322.063232,425.681366 2321.986816,428.011749 
	C2321.828369,432.847534 2318.080811,436.888214 2313.354248,436.960907 
	C2304.691162,437.094147 2296.023193,437.093689 2287.360352,436.955475 
	C2283.389893,436.892151 2279.161133,433.088837 2279.079590,429.224640 
	C2278.868896,419.283051 2279.009033,409.334015 2279.009033,398.920410 
	C2319.217773,398.920410 2358.942871,398.920410 2398.789551,398.920410 
	C2398.884766,397.821167 2398.988037,397.182404 2398.988281,396.543549 
	C2398.997803,370.881653 2399.057861,345.219421 2398.931152,319.558167 
	C2398.913818,316.004822 2398.209229,312.401642 2397.415527,308.914215 
	C2393.286621,290.768738 2381.750488,279.507996 2364.302490,274.011688 
	C2351.683838,270.036621 2338.600098,269.230743 2325.492432,269.040192 
	C2312.830811,268.856079 2300.164307,269.000336 2286.500000,269.000305 
M130.000000,378.499939 
	C130.000000,346.410858 130.000000,314.321808 130.000000,281.838318 
	C141.627670,281.838318 152.702621,281.838318 163.722778,281.838318 
	C163.722778,260.038452 163.722778,238.637375 163.722778,216.841431 
	C152.375488,216.841431 141.300186,216.841431 129.841293,216.841431 
	C129.841293,200.375046 129.841293,184.302399 129.841293,168.271881 
	C98.378967,168.271881 67.313469,168.271881 35.853706,168.271881 
	C35.853706,184.612366 35.853706,200.684982 35.853706,217.146851 
	C25.720673,217.146851 15.978292,217.146851 6.270039,217.146851 
	C6.270039,238.947021 6.270039,260.348022 6.270039,282.144623 
	C16.276979,282.144623 26.019489,282.144623 36.000000,282.144623 
	C36.000000,284.180634 36.000000,285.820892 36.000000,287.461121 
	C36.000000,325.283142 35.883450,363.105774 36.090847,400.926666 
	C36.136505,409.252533 36.709312,417.679657 38.124924,425.872620 
	C41.263580,444.037842 52.268410,456.539459 68.781876,463.837524 
	C83.069008,470.151642 98.466499,471.830414 113.979485,471.971039 
	C128.807159,472.105469 143.637024,472.005920 158.465897,471.990570 
	C159.904266,471.989075 161.342499,471.856079 162.725983,471.786865 
	C162.725983,450.044922 162.725983,428.643890 162.725983,407.000000 
	C155.148499,407.000000 147.841995,407.051178 140.536530,406.985321 
	C133.538330,406.922272 130.014618,403.361786 130.002121,396.494720 
	C129.991791,390.829742 130.000000,385.164795 130.000000,378.499939 
M2966.000000,313.481812 
	C2966.000000,317.246857 2966.000000,321.011871 2966.000000,325.237000 
	C2975.042725,325.237000 2983.447510,325.237000 2991.757324,325.237000 
	C2991.881348,326.042603 2991.974609,326.366333 2991.974854,326.690125 
	C2991.987793,362.354431 2991.956543,398.018860 2992.044434,433.682953 
	C2992.056152,438.438263 2992.260498,443.263336 2993.074707,447.934265 
	C2996.531006,467.759125 3008.821533,479.377808 3027.323242,485.073273 
	C3041.516846,489.442535 3056.101074,489.521118 3070.668457,489.949432 
	C3079.826660,490.218689 3088.999268,490.012848 3098.165283,489.983734 
	C3099.419189,489.979767 3100.672363,489.764252 3101.751953,489.662994 
	C3101.751953,470.944763 3101.751953,452.668213 3101.751953,433.999908 
	C3096.218018,433.999908 3090.892578,434.358582 3085.633301,433.923126 
	C3075.597900,433.092194 3072.785156,430.791840 3072.883301,421.330109 
	C3073.197510,391.001923 3073.000000,360.668457 3073.000000,330.337006 
	C3073.000000,328.593536 3073.000000,326.850098 3073.000000,324.811188 
	C3083.052734,324.811188 3092.332031,324.811188 3101.716309,324.811188 
	C3101.716309,306.110809 3101.716309,287.717133 3101.716309,268.842621 
	C3092.038818,268.842621 3082.635254,268.842621 3072.768555,268.842621 
	C3072.768555,254.298050 3072.768555,240.230469 3072.768555,226.216156 
	C3045.676270,226.216156 3019.067383,226.216156 2991.977539,226.216156 
	C2991.977539,240.489227 2991.977539,254.556870 2991.977539,269.096191 
	C2983.103516,269.096191 2974.699951,269.096191 2966.000000,269.096191 
	C2966.000000,283.880737 2966.000000,298.184540 2966.000000,313.481812 
z"/>
<path fill="#FFFFFF" opacity="1.000000" stroke="none" 
	d="
M1508.531372,0.999990 
	C1509.487305,1.661565 1509.930786,2.863108 1510.468018,2.906537 
	C1528.486450,4.363205 1545.573608,9.476932 1562.297852,16.001762 
	C1579.799561,22.829779 1596.063843,31.929903 1610.867920,43.475651 
	C1618.217651,49.207714 1625.889282,54.859615 1631.972046,61.810738 
	C1642.880981,74.276901 1653.601562,87.095299 1662.778198,100.849098 
	C1679.497681,125.907913 1690.299683,153.697403 1697.032104,183.078400 
	C1700.954712,200.196899 1704.546509,217.348190 1704.989502,234.983276 
	C1705.380859,250.565948 1706.609253,266.201324 1705.785767,281.724182 
	C1704.426392,307.346832 1700.495361,332.744110 1693.879761,357.566254 
	C1688.222900,378.791840 1681.019653,399.518646 1672.135864,419.692780 
	C1660.814087,445.402832 1647.501099,469.933655 1630.957153,492.620483 
	C1622.920898,503.640625 1614.525391,514.456360 1605.559692,524.724670 
	C1596.624512,534.957947 1587.164185,544.810120 1577.235107,554.080750 
	C1560.237671,569.951355 1541.733521,583.946350 1521.651611,595.779724 
	C1501.664917,607.557007 1480.890991,617.718933 1458.511963,623.944641 
	C1444.886475,627.735107 1430.967773,631.052429 1416.959106,632.729370 
	C1401.435669,634.587585 1385.617798,635.369690 1370.003418,634.743713 
	C1349.438965,633.919312 1329.469727,628.802307 1310.181274,621.575745 
	C1290.911011,614.356018 1272.965210,604.361450 1257.176758,591.301636 
	C1245.743530,581.844360 1235.587158,570.746338 1225.474731,559.812683 
	C1211.659424,544.875488 1201.381592,527.448486 1192.730957,509.140686 
	C1187.672852,498.436127 1183.383301,487.355164 1179.090698,476.310364 
	C1177.803833,472.999390 1176.219604,471.860413 1172.668335,471.912659 
	C1158.345215,472.123383 1144.017090,472.000000 1129.345459,472.000000 
	C1129.345459,387.163849 1129.345459,302.428711 1129.345459,217.219238 
	C1130.492676,217.156219 1131.914551,217.011246 1133.336548,217.010101 
	C1152.335327,216.995010 1171.335815,216.870239 1190.331787,217.102142 
	C1194.463989,217.152573 1196.837769,216.217972 1198.518555,212.175308 
	C1200.475464,207.468170 1203.390869,203.159500 1206.316284,198.666229 
	C1206.855591,198.793930 1206.968872,198.933243 1207.082153,199.072571 
	C1204.678101,204.802658 1202.273926,210.532730 1199.693237,216.683655 
	C1203.504517,216.683655 1206.904419,216.683655 1210.735352,216.683655 
	C1221.251465,196.491928 1234.026123,177.271286 1249.002075,159.687088 
	C1270.030151,134.996857 1294.201050,113.906960 1322.694214,97.963310 
	C1340.637329,87.923019 1359.624878,80.680565 1379.597046,76.312897 
	C1394.070190,73.147766 1408.946411,71.888603 1423.756470,73.101166 
	C1450.568237,75.296364 1475.335938,83.503685 1497.731323,98.887459 
	C1517.910767,112.749054 1533.083496,130.823593 1545.342529,151.729553 
	C1555.666748,169.335754 1562.900269,188.170425 1567.330933,207.976776 
	C1569.979126,219.815460 1571.682251,231.932129 1572.845947,244.016678 
	C1573.906494,255.031021 1573.800659,266.168579 1573.968018,277.255463 
	C1574.206055,293.016113 1572.708984,308.646423 1568.975586,323.965118 
	C1564.869873,340.812073 1561.179565,357.829315 1555.807007,374.282074 
	C1548.110229,397.852386 1536.788330,419.802185 1523.747559,440.988007 
	C1508.469971,465.807831 1489.691406,487.578003 1468.259521,506.977844 
	C1446.569824,526.611023 1422.108643,542.310181 1394.245972,551.886597 
	C1382.436890,555.945374 1370.337036,560.137024 1358.053589,561.580872 
	C1343.750122,563.262024 1329.078369,562.516052 1314.607056,561.887695 
	C1295.400879,561.053772 1277.927246,554.048157 1261.155518,545.042053 
	C1248.675781,538.340637 1238.021118,529.437561 1227.907959,519.580811 
	C1213.840576,505.870209 1203.565552,489.675842 1194.475708,472.181580 
	C1189.985718,472.181580 1185.208862,472.181580 1179.509888,472.181580 
	C1181.305054,477.070953 1182.510986,481.865814 1184.733643,486.130829 
	C1191.906982,499.895630 1200.088745,512.965027 1210.217529,524.896301 
	C1225.897705,543.366943 1244.710571,557.362549 1266.703735,567.272522 
	C1278.344116,572.517578 1290.397583,576.382263 1303.097656,577.981995 
	C1311.819946,579.080627 1320.608521,581.085999 1329.292603,580.750732 
	C1346.296997,580.094299 1363.190430,577.993958 1379.665283,573.062500 
	C1408.396973,564.462036 1434.519043,550.722900 1457.901245,532.256165 
	C1471.711792,521.349060 1484.792969,509.247772 1496.771729,496.354553 
	C1515.539307,476.154388 1530.926025,453.391083 1544.121948,429.055878 
	C1560.633423,398.605774 1572.282959,366.411865 1579.762329,332.772034 
	C1583.066528,317.911041 1584.528564,302.567627 1585.837646,287.358124 
	C1586.958130,274.341248 1587.614868,261.144226 1586.810669,248.129868 
	C1584.896851,217.164795 1578.522461,187.108246 1565.963989,158.506729 
	C1554.986328,133.505234 1539.543213,111.729073 1519.096436,93.742752 
	C1500.029053,76.969841 1477.733154,66.035583 1453.063354,60.009865 
	C1437.958374,56.320427 1422.544312,54.971302 1407.120972,56.132961 
	C1384.966553,57.801594 1363.560791,62.943413 1343.087402,71.916649 
	C1328.439575,78.336639 1314.313110,85.644447 1301.400269,95.045067 
	C1291.816162,102.022377 1282.329468,109.241730 1273.540894,117.174934 
	C1263.507202,126.232239 1253.473755,135.526031 1244.929199,145.938843 
	C1233.568115,159.783951 1223.645630,174.809586 1212.681396,189.336731 
	C1212.144409,189.206070 1212.031128,189.066757 1211.917847,188.927429 
	C1216.442261,180.621109 1220.347290,171.896042 1225.621216,164.096649 
	C1236.210083,148.437515 1246.580078,132.455963 1258.837891,118.147415 
	C1271.855469,102.951988 1286.738525,89.314598 1301.207764,75.413971 
	C1316.355957,60.861019 1333.845825,49.330956 1351.876343,38.731537 
	C1372.285645,26.733747 1393.747681,16.957029 1416.767944,11.031861 
	C1428.140869,8.104650 1439.636963,5.653626 1451.090576,3.045244 
	C1453.565918,2.481550 1456.097900,2.167406 1458.302002,1.369160 
	C1474.687622,1.000000 1491.375122,1.000000 1508.531372,0.999990 
M1264.599609,472.000000 
	C1262.825806,472.000000 1261.052124,472.000000 1259.000000,472.000000 
	C1259.000000,469.700043 1259.000000,467.895081 1259.000000,466.090118 
	C1259.000000,408.601959 1258.960327,351.113739 1259.046265,293.625702 
	C1259.057983,285.745728 1254.869385,282.240295 1247.373657,282.016785 
	C1244.043945,281.917480 1240.670410,282.325256 1237.383789,281.936340 
	C1229.018188,280.946381 1222.799683,288.122223 1222.842896,296.323242 
	C1223.141357,352.976685 1223.000000,409.632416 1223.000000,466.287415 
	C1223.000000,468.072266 1223.000000,469.857147 1223.000000,472.012268 
	C1217.216797,472.012268 1211.844360,472.012268 1206.471924,472.012268 
	C1206.110229,472.401093 1205.748657,472.789917 1205.387085,473.178741 
	C1213.023438,483.718842 1220.478149,494.396698 1228.340210,504.765717 
	C1239.171143,519.050293 1253.323242,529.534180 1268.940308,537.896484 
	C1285.447876,546.735535 1303.163940,551.393799 1321.953735,553.287720 
	C1336.432251,554.747009 1350.523071,553.390503 1364.383179,550.598389 
	C1384.271606,546.592102 1403.010376,538.953979 1420.703857,528.804688 
	C1437.700806,519.054932 1453.176758,507.275452 1467.374268,493.909088 
	C1475.515137,486.244690 1482.780029,477.627228 1490.213257,469.238464 
	C1505.301392,452.210236 1517.373779,433.071350 1527.899414,413.023804 
	C1539.638550,390.665192 1548.541626,367.124664 1554.753418,342.607300 
	C1559.834351,322.552856 1563.274292,302.212830 1563.879272,281.533356 
	C1564.217529,269.970276 1563.766724,258.337830 1562.872192,246.798599 
	C1562.057251,236.286346 1560.861572,225.703918 1558.597290,215.424744 
	C1554.060059,194.826538 1547.052002,175.112808 1536.409546,156.672714 
	C1526.031982,138.691589 1512.972046,123.054588 1496.692749,110.474632 
	C1476.278931,94.699738 1452.743896,85.443863 1427.041626,83.218079 
	C1411.505127,81.872643 1395.787231,82.573578 1380.403809,86.233452 
	C1360.419922,90.987839 1341.553955,98.497070 1323.912842,109.018394 
	C1302.955322,121.517578 1284.285522,136.727768 1267.610352,154.652405 
	C1253.682861,169.623657 1241.357422,185.677826 1230.621338,202.987457 
	C1227.006348,208.815613 1222.776123,214.830765 1221.372070,221.311768 
	C1219.767822,228.717682 1221.000610,236.738190 1221.000610,244.491653 
	C1224.193970,237.614990 1228.005859,231.503433 1234.176636,226.937286 
	C1244.767578,219.100388 1257.138062,217.217896 1269.585571,217.220062 
	C1282.159790,217.222260 1294.833618,218.337036 1307.277100,220.207153 
	C1317.686890,221.771667 1327.159668,226.456787 1335.170898,233.648621 
	C1348.695923,245.790268 1352.744995,261.952911 1352.848633,278.969391 
	C1353.230103,341.620850 1353.000000,404.276001 1353.000000,466.929779 
	C1353.000000,468.534027 1353.000000,470.138245 1353.000000,472.000000 
	C1323.507690,472.000000 1294.542236,472.000000 1264.599609,472.000000 
z"/>
<path fill="#FBA91E" opacity="1.000000" stroke="none" 
	d="
M3355.000000,447.531342 
	C3354.354004,448.337158 3353.218506,448.579712 3353.132568,449.024994 
	C3348.714844,471.905640 3332.822998,482.344238 3311.772217,486.917267 
	C3306.056396,488.158905 3300.121094,488.761017 3294.266113,488.922089 
	C3274.689697,489.460632 3255.103027,489.979156 3235.522705,489.895874 
	C3221.129150,489.834625 3206.642578,489.490906 3192.733154,484.974701 
	C3174.582275,479.081329 3162.624512,468.082306 3159.070312,447.851074 
	C3158.279053,443.346375 3158.053711,438.693481 3158.044434,434.107819 
	C3157.966309,396.133789 3157.671387,358.155701 3158.117188,320.186737 
	C3158.407227,295.481171 3171.678955,279.121735 3195.730957,273.257935 
	C3207.224365,270.455841 3219.345215,269.587006 3231.228516,269.172668 
	C3249.859863,268.523041 3268.545898,268.532532 3287.178955,269.159393 
	C3300.318848,269.601440 3313.489746,270.790649 3325.862305,276.324890 
	C3340.409180,282.831665 3349.664551,293.435516 3353.036133,309.087830 
	C3353.225830,309.968689 3353.878174,310.749817 3354.657715,311.288696 
	C3355.000000,340.020905 3355.000000,369.041779 3354.531250,398.531189 
	C3314.478027,398.999725 3274.893555,398.999725 3235.000000,398.999725 
	C3235.000000,408.877502 3235.409668,418.202942 3234.853516,427.470490 
	C3234.493652,433.468903 3238.977295,437.011261 3244.662598,437.002747 
	C3252.159424,436.991516 3259.656250,437.038239 3267.152832,436.988983 
	C3274.336182,436.941772 3277.931152,433.293915 3277.993896,426.067383 
	C3278.028320,422.131256 3278.000000,418.194550 3278.000000,414.000000 
	C3304.071777,414.000000 3329.535889,414.000000 3355.000000,414.000000 
	C3355.000000,425.020905 3355.000000,436.041779 3355.000000,447.531342 
M3252.528564,322.000000 
	C3249.529053,322.000458 3246.500488,321.738556 3243.537598,322.068207 
	C3239.895752,322.473450 3235.569092,323.685120 3235.334473,327.682556 
	C3234.745361,337.721771 3235.139404,347.818726 3235.139404,357.758667 
	C3249.710938,357.758667 3263.653320,357.758667 3277.997803,357.758667 
	C3277.997803,348.398529 3278.130371,339.271393 3277.939941,330.151062 
	C3277.848633,325.782104 3273.612061,322.109253 3269.015869,322.022583 
	C3263.852051,321.925201 3258.684814,322.000061 3252.528564,322.000000 
z"/>
<path fill="#000000" opacity="1.000000" stroke="none" 
	d="
M3355.000000,413.533875 
	C3329.535889,414.000000 3304.071777,414.000000 3278.000000,414.000000 
	C3278.000000,418.194550 3278.028320,422.131256 3277.993896,426.067383 
	C3277.931152,433.293915 3274.336182,436.941772 3267.152832,436.988983 
	C3259.656250,437.038239 3252.159424,436.991516 3244.662598,437.002747 
	C3238.977295,437.011261 3234.493652,433.468903 3234.853516,427.470490 
	C3235.409668,418.202942 3235.000000,408.877502 3235.000000,398.999725 
	C3274.893555,398.999725 3314.478027,398.999725 3354.531250,398.999878 
	C3355.000000,403.689240 3355.000000,408.378510 3355.000000,413.533875 
z"/>
<path fill="#FFFFFF" opacity="1.000000" stroke="none" 
	d="
M822.000000,157.000000 
	C822.000000,148.190887 822.000000,139.881775 822.000000,131.287201 
	C853.282532,131.287201 884.348206,131.287201 915.739624,131.287201 
	C915.739624,167.621445 915.739624,204.038208 915.739624,241.925095 
	C920.260437,234.184708 924.459961,227.773651 931.759583,224.779694 
	C938.078308,222.188034 944.511169,219.379242 951.163818,218.227539 
	C958.742859,216.915436 966.660400,216.681534 974.361328,217.142044 
	C988.391174,217.981033 1002.584534,218.647324 1015.539490,225.184692 
	C1033.728516,234.363190 1044.510498,249.289078 1044.779785,269.476410 
	C1045.676636,336.697662 1045.630127,403.931488 1045.932983,471.160553 
	C1045.933594,471.288422 1045.755737,471.417053 1045.493652,471.772644 
	C1014.596497,471.772644 983.531250,471.772644 952.000000,471.772644 
	C952.000000,469.901306 952.000000,468.122040 952.000000,466.342743 
	C952.000000,408.693298 952.000305,351.043884 951.999756,293.394440 
	C951.999695,286.290253 950.926941,283.990601 944.039551,282.768799 
	C937.945557,281.687775 931.330688,281.273285 925.338135,282.492584 
	C918.571045,283.869507 915.887451,290.587128 915.901367,295.649841 
	C916.057312,352.465759 916.000000,409.282257 916.000000,466.098602 
	C916.000000,467.900055 916.000000,469.701477 916.000000,471.749725 
	C884.642822,471.749725 853.577515,471.749725 822.000000,471.749725 
	C822.000000,366.979218 822.000000,262.239594 822.000000,157.000000 
z"/>
<path fill="#FFFFFF" opacity="1.000000" stroke="none" 
	d="
M228.000000,368.000000 
	C228.000000,337.678650 227.780182,307.854858 228.110870,278.037170 
	C228.238754,266.506104 230.750580,255.340271 237.133789,245.337692 
	C245.976364,231.481201 259.250305,224.161911 274.734192,221.199356 
	C286.859985,218.879318 299.302185,217.532852 311.644897,217.176392 
	C333.451263,216.546600 355.300110,216.578857 377.109344,217.156525 
	C390.378784,217.508011 403.726013,218.643738 416.486969,223.005966 
	C438.399231,230.496475 451.277924,245.707504 454.918182,268.544983 
	C455.742554,273.716797 455.934113,279.031677 455.954254,284.282471 
	C456.054352,310.438232 456.000000,336.594604 456.000000,362.750763 
	C456.000000,364.377960 456.000000,366.005127 456.000000,367.988281 
	C409.541809,367.988281 363.481750,367.988281 317.003418,367.988281 
	C317.003418,379.977814 316.871002,391.593231 317.074158,403.202789 
	C317.146790,407.354309 321.364563,410.861877 326.246460,410.944702 
	C336.739227,411.122711 347.238953,411.115387 357.732056,410.947205 
	C362.481262,410.871094 366.784790,405.615723 366.984436,400.154236 
	C367.075653,397.658600 367.000000,395.156830 367.000000,392.657837 
	C367.000000,390.332550 367.000000,388.007233 367.000000,385.341156 
	C396.503693,385.341156 425.901947,385.341156 456.332397,385.341156 
	C455.946106,393.942078 455.760040,402.789612 455.082825,411.599396 
	C454.585693,418.066559 454.121582,424.664673 452.461548,430.889435 
	C447.846649,448.194275 435.745209,458.683929 419.538300,464.989166 
	C410.125244,468.651398 400.417053,470.905975 390.256439,471.009308 
	C359.683777,471.320038 329.105469,472.150482 298.541901,471.771576 
	C285.528931,471.610199 272.426575,469.270386 260.370087,463.692139 
	C244.281006,456.248047 233.411499,444.038727 230.193329,426.409637 
	C228.466629,416.950775 228.407913,407.148834 228.073318,397.485199 
	C227.739136,387.834198 228.000000,378.162567 228.000000,368.000000 
M355.164185,278.000000 
	C346.175720,278.000000 337.186462,277.928040 328.199005,278.024109 
	C321.696808,278.093628 317.305847,281.080688 317.123352,286.451294 
	C316.746826,297.530884 317.010010,308.632202 317.010010,319.762756 
	C333.901947,319.762756 350.292389,319.762756 367.000000,319.762756 
	C367.000000,309.743164 367.001404,299.957367 366.999542,290.171570 
	C366.998108,282.581390 364.004517,279.247345 355.164185,278.000000 
z"/>
<path fill="#FFFFFF" opacity="1.000000" stroke="none" 
	d="
M621.000000,366.000000 
	C621.000000,375.332184 620.830688,384.169067 621.074829,392.994476 
	C621.188782,397.114105 621.207336,401.414490 624.954834,404.550751 
	C629.250366,408.145660 650.696350,408.351196 654.105896,404.151703 
	C655.795227,402.070984 656.738098,398.882233 656.873413,396.138367 
	C657.241699,388.665985 657.000000,381.163544 657.000000,373.336731 
	C686.852783,373.336731 716.589600,373.336731 746.719543,373.336731 
	C746.799866,374.347534 746.984192,375.606232 746.986755,376.865326 
	C747.009460,388.030487 746.929260,399.196259 747.013794,410.360840 
	C747.233826,439.426208 732.725098,458.986267 705.772766,466.770386 
	C695.432861,469.756622 684.428589,471.457092 673.669373,471.771881 
	C649.026978,472.492920 624.336487,472.474518 599.690308,471.822662 
	C584.825195,471.429474 569.985779,469.064667 556.609619,461.845764 
	C540.567627,453.188171 531.128296,439.663818 529.071106,421.432281 
	C528.296814,414.570435 528.059753,407.617737 528.044800,400.705475 
	C527.954651,359.044403 527.720520,317.380219 528.147522,275.723358 
	C528.302673,260.594360 533.186890,246.633316 544.634949,235.990601 
	C554.075928,227.213760 565.691162,222.270218 578.239441,220.081497 
	C607.971985,214.895432 638.029358,217.197617 667.949219,217.194244 
	C682.342773,217.192612 696.830811,218.590881 710.539612,223.988373 
	C730.658325,231.909576 744.096558,245.675629 745.769653,267.820831 
	C746.962708,283.612579 746.001282,299.567108 746.001282,315.727661 
	C717.016968,315.727661 687.280884,315.727661 657.000000,315.727661 
	C657.000000,308.326355 657.007263,300.890656 656.997681,293.454987 
	C656.990356,287.757233 654.150452,283.138672 648.766296,282.448242 
	C642.722412,281.673279 636.397339,281.499512 630.395752,282.401672 
	C623.412354,283.451416 621.020813,287.664856 621.010193,296.009766 
	C620.980774,319.173157 621.000000,342.336578 621.000000,366.000000 
z"/>
<path fill="#FBA91E" opacity="1.000000" stroke="none" 
	d="
M2715.000000,346.000000 
	C2715.000000,336.835876 2714.727051,328.161346 2715.056885,319.509796 
	C2715.737549,301.662048 2721.833252,286.223389 2738.359131,277.598083 
	C2745.935547,273.643860 2754.822510,271.696411 2763.354004,270.223633 
	C2771.268066,268.857422 2779.518799,268.828644 2787.587891,269.124786 
	C2798.366943,269.520386 2809.308350,270.816406 2817.883789,278.146454 
	C2822.291260,281.913666 2825.383545,287.219513 2828.823975,291.522095 
	C2828.823975,284.788147 2828.823975,277.258759 2828.823975,269.366486 
	C2855.211670,269.366486 2881.268066,269.366486 2907.663086,269.366486 
	C2907.663086,342.596344 2907.663086,415.975769 2907.663086,489.677673 
	C2881.032227,489.677673 2854.309570,489.677673 2827.081543,489.677673 
	C2827.081543,483.363129 2827.081543,477.013397 2827.081543,469.927185 
	C2817.897705,482.596283 2806.522461,488.483826 2791.465088,489.268341 
	C2776.082031,490.069855 2760.967285,489.811920 2746.425781,484.859528 
	C2728.669189,478.812073 2718.095459,466.116852 2716.103027,447.231262 
	C2715.151123,438.208679 2715.094971,429.067932 2715.045410,419.978455 
	C2714.911865,395.486298 2715.000000,370.992889 2715.000000,346.000000 
M2827.000000,394.500000 
	C2827.000000,375.368286 2827.014648,356.236572 2826.991699,337.104889 
	C2826.983643,330.381805 2825.252930,327.247192 2818.448486,326.089264 
	C2812.850098,325.136597 2806.787109,325.595337 2801.180176,326.699249 
	C2799.088623,327.110992 2796.248535,331.108673 2796.222412,333.498352 
	C2795.887451,364.105408 2796.003174,394.717346 2795.997559,425.328064 
	C2795.996826,429.132080 2798.095459,431.891174 2801.435303,432.613281 
	C2806.033447,433.607452 2810.946289,434.348846 2815.559326,433.802856 
	C2823.539795,432.858368 2827.130859,429.645813 2827.021240,420.454132 
	C2826.921875,412.137207 2827.000000,403.818115 2827.000000,394.500000 
z"/>
<path fill="#FBA91E" opacity="1.000000" stroke="none" 
	d="
M1898.000000,399.000000 
	C1886.863770,399.000000 1876.227539,399.000000 1865.018677,399.000000 
	C1865.018677,409.718079 1864.678955,420.165771 1865.174438,430.573700 
	C1865.393433,435.173706 1869.689331,436.792389 1873.769653,436.922241 
	C1881.924927,437.181763 1890.097046,437.124573 1898.257202,436.958038 
	C1904.387573,436.832947 1907.787109,433.267029 1907.975830,427.063354 
	C1908.101807,422.922791 1907.999756,418.775269 1907.999756,414.316711 
	C1933.642334,414.316711 1959.031006,414.316711 1985.392578,414.316711 
	C1984.949463,422.523895 1984.824585,430.739746 1983.964722,438.877899 
	C1983.286621,445.296051 1982.437744,451.868652 1980.372559,457.932495 
	C1975.777466,471.424286 1965.332275,479.237305 1952.375244,483.979797 
	C1942.463867,487.607452 1932.206909,489.039948 1921.616699,489.076843 
	C1900.694946,489.149689 1879.763062,490.238556 1858.857788,489.811371 
	C1843.269775,489.492828 1827.546631,488.514313 1813.142212,481.060730 
	C1799.405762,473.952698 1791.673950,462.606659 1789.075806,447.644623 
	C1788.265015,442.974670 1788.054688,438.152557 1788.044312,433.399048 
	C1787.964111,396.579712 1788.046387,359.760040 1787.974976,322.940674 
	C1787.949707,309.964142 1790.985352,297.906738 1799.623291,288.079803 
	C1806.538696,280.212433 1815.645142,274.934845 1825.970093,273.164795 
	C1837.870239,271.124634 1849.958374,269.601257 1862.011963,269.171143 
	C1880.315063,268.517975 1898.674683,268.533386 1916.979980,269.156250 
	C1930.289062,269.609161 1943.589722,270.839600 1956.135742,276.470001 
	C1970.391357,282.867615 1979.503052,293.312561 1982.869751,308.447937 
	C1984.210693,314.475983 1984.848267,320.771606 1984.907471,326.954010 
	C1985.135376,350.755249 1985.000000,374.560028 1985.000000,399.000000 
	C1955.999878,399.000000 1927.250000,399.000000 1898.000000,399.000000 
M1908.000000,349.451965 
	C1908.000000,343.286041 1908.074707,337.118927 1907.975464,330.954590 
	C1907.901489,326.364868 1904.197388,322.151123 1899.818604,322.058105 
	C1890.990356,321.870575 1882.146851,321.776733 1873.326904,322.106598 
	C1869.497803,322.249786 1865.373901,323.988525 1865.165039,328.372864 
	C1864.700684,338.122437 1865.020020,347.909393 1865.020020,357.683472 
	C1879.624512,357.683472 1893.685181,357.683472 1908.000000,357.683472 
	C1908.000000,355.057251 1908.000000,352.745392 1908.000000,349.451965 
z"/>
<path fill="#FBA91E" opacity="1.000000" stroke="none" 
	d="
M2287.000000,269.000305 
	C2300.164307,269.000336 2312.830811,268.856079 2325.492432,269.040192 
	C2338.600098,269.230743 2351.683838,270.036621 2364.302490,274.011688 
	C2381.750488,279.507996 2393.286621,290.768738 2397.415527,308.914215 
	C2398.209229,312.401642 2398.913818,316.004822 2398.931152,319.558167 
	C2399.057861,345.219421 2398.997803,370.881653 2398.988281,396.543549 
	C2398.988037,397.182404 2398.884766,397.821167 2398.789551,398.920410 
	C2358.942871,398.920410 2319.217773,398.920410 2279.009033,398.920410 
	C2279.009033,409.334015 2278.868896,419.283051 2279.079590,429.224640 
	C2279.161133,433.088837 2283.389893,436.892151 2287.360352,436.955475 
	C2296.023193,437.093689 2304.691162,437.094147 2313.354248,436.960907 
	C2318.080811,436.888214 2321.828369,432.847534 2321.986816,428.011749 
	C2322.063232,425.681366 2322.000000,423.346375 2322.000000,421.013489 
	C2322.000000,418.873199 2322.000000,416.732910 2322.000000,414.297913 
	C2347.685791,414.297913 2373.077148,414.297913 2398.963135,414.297913 
	C2398.734619,430.680389 2401.130859,447.335144 2392.727295,462.515167 
	C2387.343262,472.240448 2379.260498,479.068054 2368.708496,483.151062 
	C2358.178223,487.225586 2347.398193,488.972412 2336.162109,489.052826 
	C2314.902588,489.204926 2293.632324,490.258789 2272.391602,489.793823 
	C2257.959961,489.477875 2243.365479,488.542023 2229.854980,482.067810 
	C2213.810791,474.379425 2203.620605,462.046783 2203.199707,444.186798 
	C2202.235352,403.282623 2201.990479,362.352051 2202.157227,321.435059 
	C2202.231445,303.230591 2209.376953,287.709778 2226.082031,278.760559 
	C2233.210693,274.941864 2241.463379,272.373932 2249.485107,271.268097 
	C2261.695801,269.584808 2274.149414,269.667542 2287.000000,269.000305 
M2285.379883,322.174377 
	C2283.290771,324.367401 2279.562500,326.444977 2279.398682,328.773560 
	C2278.717773,338.442047 2279.112549,348.186310 2279.112549,357.615295 
	C2293.815186,357.615295 2307.852783,357.615295 2322.000000,357.615295 
	C2322.000000,348.922913 2321.508789,340.576874 2322.148682,332.318451 
	C2322.703369,325.162231 2317.739990,321.866119 2311.663330,321.966492 
	C2303.188477,322.106445 2294.709961,322.013763 2285.379883,322.174377 
z"/>
<path fill="#FFFFFF" opacity="1.000000" stroke="none" 
	d="
M130.000000,378.999878 
	C130.000000,385.164795 129.991791,390.829742 130.002121,396.494720 
	C130.014618,403.361786 133.538330,406.922272 140.536530,406.985321 
	C147.841995,407.051178 155.148499,407.000000 162.725983,407.000000 
	C162.725983,428.643890 162.725983,450.044922 162.725983,471.786865 
	C161.342499,471.856079 159.904266,471.989075 158.465897,471.990570 
	C143.637024,472.005920 128.807159,472.105469 113.979485,471.971039 
	C98.466499,471.830414 83.069008,470.151642 68.781876,463.837524 
	C52.268410,456.539459 41.263580,444.037842 38.124924,425.872620 
	C36.709312,417.679657 36.136505,409.252533 36.090847,400.926666 
	C35.883450,363.105774 36.000000,325.283142 36.000000,287.461121 
	C36.000000,285.820892 36.000000,284.180634 36.000000,282.144623 
	C26.019489,282.144623 16.276979,282.144623 6.270039,282.144623 
	C6.270039,260.348022 6.270039,238.947021 6.270039,217.146851 
	C15.978292,217.146851 25.720673,217.146851 35.853706,217.146851 
	C35.853706,200.684982 35.853706,184.612366 35.853706,168.271881 
	C67.313469,168.271881 98.378967,168.271881 129.841293,168.271881 
	C129.841293,184.302399 129.841293,200.375046 129.841293,216.841431 
	C141.300186,216.841431 152.375488,216.841431 163.722778,216.841431 
	C163.722778,238.637375 163.722778,260.038452 163.722778,281.838318 
	C152.702621,281.838318 141.627670,281.838318 130.000000,281.838318 
	C130.000000,314.321808 130.000000,346.410858 130.000000,378.999878 
z"/>
<path fill="#FBA91E" opacity="1.000000" stroke="none" 
	d="
M2663.113281,271.043121 
	C2661.119385,279.219482 2659.284424,287.438507 2657.102051,295.564270 
	C2650.135254,321.503296 2643.079346,347.418518 2635.982178,373.322266 
	C2630.125977,394.697754 2624.133301,416.035858 2618.254883,437.405396 
	C2613.791748,453.629944 2609.385010,469.870270 2605.031250,486.124390 
	C2604.449219,488.296600 2604.128906,490.058777 2601.139404,490.050690 
	C2570.002930,489.966522 2538.866211,489.998840 2507.453125,489.998840 
	C2497.599121,453.559326 2487.883789,417.189026 2477.911377,380.889404 
	C2469.169434,349.068726 2460.117676,317.333374 2451.260254,285.544250 
	C2450.001465,281.026489 2449.068359,276.418060 2448.408691,271.433350 
	C2475.166016,271.010284 2501.499756,271.005493 2527.833252,271.000732 
	C2530.219727,281.912506 2532.739990,292.797150 2534.962158,303.742371 
	C2538.446289,320.904663 2541.667969,338.120209 2545.114746,355.290314 
	C2548.399658,371.653595 2551.829102,387.987854 2555.223145,404.329041 
	C2555.267578,404.542877 2555.683594,404.679596 2556.434570,405.214142 
	C2557.988525,397.480194 2559.506836,389.988525 2560.997803,382.491455 
	C2564.792725,363.409088 2568.553467,344.319916 2572.369385,325.241791 
	C2575.548828,309.347748 2578.792236,293.466553 2581.993896,277.577026 
	C2582.377930,275.671051 2582.681152,273.748810 2583.552246,271.417175 
	C2602.837402,271.000122 2621.592285,270.996002 2640.347412,271.001953 
	C2647.936035,271.004364 2655.524658,271.028748 2663.113281,271.043121 
z"/>
<path fill="#FBA91E" opacity="1.000000" stroke="none" 
	d="
M2966.000000,312.985077 
	C2966.000000,298.184540 2966.000000,283.880737 2966.000000,269.096191 
	C2974.699951,269.096191 2983.103516,269.096191 2991.977539,269.096191 
	C2991.977539,254.556870 2991.977539,240.489227 2991.977539,226.216156 
	C3019.067383,226.216156 3045.676270,226.216156 3072.768555,226.216156 
	C3072.768555,240.230469 3072.768555,254.298050 3072.768555,268.842621 
	C3082.635254,268.842621 3092.038818,268.842621 3101.716309,268.842621 
	C3101.716309,287.717133 3101.716309,306.110809 3101.716309,324.811188 
	C3092.332031,324.811188 3083.052734,324.811188 3073.000000,324.811188 
	C3073.000000,326.850098 3073.000000,328.593536 3073.000000,330.337006 
	C3073.000000,360.668457 3073.197510,391.001923 3072.883301,421.330109 
	C3072.785156,430.791840 3075.597900,433.092194 3085.633301,433.923126 
	C3090.892578,434.358582 3096.218018,433.999908 3101.751953,433.999908 
	C3101.751953,452.668213 3101.751953,470.944763 3101.751953,489.662994 
	C3100.672363,489.764252 3099.419189,489.979767 3098.165283,489.983734 
	C3088.999268,490.012848 3079.826660,490.218689 3070.668457,489.949432 
	C3056.101074,489.521118 3041.516846,489.442535 3027.323242,485.073273 
	C3008.821533,479.377808 2996.531006,467.759125 2993.074707,447.934265 
	C2992.260498,443.263336 2992.056152,438.438263 2992.044434,433.682953 
	C2991.956543,398.018860 2991.987793,362.354431 2991.974854,326.690125 
	C2991.974609,326.366333 2991.881348,326.042603 2991.757324,325.237000 
	C2983.447510,325.237000 2975.042725,325.237000 2966.000000,325.237000 
	C2966.000000,321.011871 2966.000000,317.246857 2966.000000,312.985077 
z"/>
<path fill="#FBA91E" opacity="1.000000" stroke="none" 
	d="
M2052.166260,486.000397 
	C2052.110840,484.838287 2052.007080,483.676147 2052.007080,482.514038 
	C2051.999512,388.072815 2052.000000,293.631592 2052.000000,199.190353 
	C2052.000000,198.033920 2052.000000,196.877487 2052.000000,195.448135 
	C2053.053711,195.286392 2053.982178,195.020264 2054.910889,195.019363 
	C2078.895996,194.996124 2102.881104,194.991928 2126.866211,195.027756 
	C2127.962891,195.029404 2129.059082,195.434525 2130.570312,196.243546 
	C2131.303955,200.865570 2131.622559,204.895782 2131.940918,208.925995 
	C2132.011719,223.049545 2132.082031,237.173111 2131.719727,252.306015 
	C2131.483398,254.198578 2131.679688,255.081802 2131.876221,255.965012 
	C2131.784180,256.270660 2131.736572,256.583679 2131.458008,257.485291 
	C2131.121826,258.377594 2131.061035,258.688782 2131.232666,259.265076 
	C2131.919678,259.599152 2132.373779,259.668121 2132.828125,259.737091 
	C2132.674316,262.533661 2132.520508,265.330231 2131.766113,268.762756 
	C2131.282471,270.193726 2131.398926,270.988678 2131.515381,271.783661 
	C2131.701660,275.041107 2131.887695,278.298553 2131.613770,282.446503 
	C2131.284912,284.488556 2131.415771,285.640076 2131.546875,286.791595 
	C2132.023193,289.593567 2132.859863,292.389069 2132.910156,295.198669 
	C2133.082275,304.798370 2133.024658,314.403290 2132.968994,324.005707 
	C2132.849121,344.743652 2132.683105,365.481384 2132.505859,386.218933 
	C2132.496094,387.365936 2132.213135,388.510620 2131.627930,390.581543 
	C2131.261963,391.914948 2131.324951,392.323151 2131.388184,392.731384 
	C2131.375488,392.526001 2131.363037,392.320648 2131.345215,392.510315 
	C2131.837646,395.594330 2132.335449,398.283356 2132.833496,400.972382 
	C2132.874756,401.147675 2132.915771,401.322968 2132.724121,401.930725 
	C2132.331299,402.733368 2132.435547,403.000885 2132.803955,403.165741 
	C2132.803955,403.165741 2132.872803,403.426300 2132.400879,403.500854 
	C2131.829102,404.651215 2131.729248,405.726959 2131.629639,406.802734 
	C2131.629639,406.802734 2131.292236,406.476746 2131.239746,406.767609 
	C2131.124756,407.372314 2131.062256,407.686157 2131.000000,408.416656 
	C2131.000000,410.222198 2131.000000,411.611115 2131.025391,413.481812 
	C2131.254883,414.575623 2131.458740,415.187653 2131.662598,415.799652 
	C2131.662598,415.799652 2131.523438,416.068878 2131.344727,416.733826 
	C2131.282471,418.193695 2131.398926,418.988678 2131.515381,419.783661 
	C2131.515381,419.783661 2131.589600,420.102722 2131.380371,420.597504 
	C2131.114258,421.394867 2131.057129,421.697418 2131.107910,422.219330 
	C2131.415283,422.712280 2131.676758,422.899384 2132.000000,423.355591 
	C2132.277832,424.798157 2132.555664,425.885101 2132.833496,426.972046 
	C2132.881836,430.345703 2132.930176,433.719330 2132.522949,437.653870 
	C2131.711670,439.900909 2131.056152,441.585419 2131.047119,443.273376 
	C2130.966064,458.181915 2131.000000,473.091034 2130.531250,488.000000 
	C2104.708252,488.000000 2079.354248,488.000000 2053.965820,487.692505 
	C2053.343018,486.923462 2052.754639,486.461914 2052.166260,486.000397 
z"/>
<path fill="#FBA81F" opacity="1.000000" stroke="none" 
	d="
M2527.886230,270.567688 
	C2501.499756,271.005493 2475.166016,271.010284 2448.355957,271.026245 
	C2447.778320,270.392151 2447.677734,269.746887 2447.576904,269.101624 
	C2448.569580,269.067780 2449.562012,269.004517 2450.554688,269.004303 
	C2475.245850,268.998901 2499.937256,268.985565 2524.628174,269.048401 
	C2525.732910,269.051208 2526.835693,269.756561 2527.886230,270.567688 
z"/>
<path fill="#FBA81F" opacity="1.000000" stroke="none" 
	d="
M2663.456543,270.828766 
	C2655.524658,271.028748 2647.936035,271.004364 2640.347412,271.001953 
	C2621.592285,270.996002 2602.837402,271.000122 2583.624512,271.000671 
	C2584.458252,270.334167 2585.746826,269.091431 2587.041504,269.085388 
	C2611.738037,268.970093 2636.435303,268.983521 2661.132324,269.068451 
	C2662.023438,269.071503 2662.910645,270.076416 2663.456543,270.828766 
z"/>
<path fill="#FBA81F" opacity="1.000000" stroke="none" 
	d="
M2054.000000,488.000000 
	C2079.354248,488.000000 2104.708252,488.000000 2130.531250,488.208374 
	C2131.000000,488.416748 2131.000000,488.833496 2131.000000,488.833496 
	C2129.451416,489.222290 2127.904053,489.945038 2126.354248,489.949799 
	C2102.866943,490.021942 2079.379395,490.017700 2055.892090,489.951630 
	C2054.613525,489.948059 2053.337402,489.244110 2052.418701,488.433105 
	C2053.184814,488.000000 2053.592529,488.000000 2054.000000,488.000000 
z"/>
<path fill="#FBA81F" opacity="1.000000" stroke="none" 
	d="
M2131.433105,488.886658 
	C2131.000000,488.833496 2131.000000,488.416748 2131.000000,488.208374 
	C2131.000000,473.091034 2130.966064,458.181915 2131.047119,443.273376 
	C2131.056152,441.585419 2131.711670,439.900909 2132.450195,438.107819 
	C2132.888184,454.209900 2132.958252,470.418976 2132.949219,486.627991 
	C2132.948730,487.398773 2132.243164,488.169220 2131.433105,488.886658 
z"/>
<path fill="#FBA81F" opacity="1.000000" stroke="none" 
	d="
M2132.332764,208.776672 
	C2131.622559,204.895782 2131.303955,200.865570 2130.974365,196.357300 
	C2131.640869,196.246063 2132.900146,196.604538 2132.905518,196.981094 
	C2132.961426,200.861496 2132.814941,204.744843 2132.332764,208.776672 
z"/>
<path fill="#FBA81F" opacity="1.000000" stroke="none" 
	d="
M2132.905762,400.536682 
	C2132.335449,398.283356 2131.837646,395.594330 2131.653320,392.492981 
	C2132.303955,394.754120 2132.640869,397.427551 2132.905762,400.536682 
z"/>
<path fill="#FBA91E" opacity="1.000000" stroke="none" 
	d="
M2131.000000,413.000000 
	C2131.000000,411.611115 2131.000000,410.222198 2131.456055,408.349274 
	C2132.209717,407.788208 2132.507324,407.711151 2132.805176,407.634064 
	C2132.858887,409.319458 2132.912354,411.004852 2132.444336,412.924286 
	C2131.615234,413.105560 2131.307617,413.052795 2131.000000,413.000000 
z"/>
<path fill="#FBA81F" opacity="1.000000" stroke="none" 
	d="
M2132.906738,426.464417 
	C2132.555664,425.885101 2132.277832,424.798157 2132.000000,423.105591 
	C2132.000000,422.500000 2132.000000,422.000000 2132.063965,421.579895 
	C2132.003418,420.905334 2131.878906,420.650879 2131.754395,420.396362 
	C2132.162842,422.249847 2132.571289,424.103302 2132.906738,426.464417 
z"/>
<path fill="#FBA91E" opacity="1.000000" stroke="none" 
	d="
M2053.965820,487.692505 
	C2053.592529,488.000000 2053.184814,488.000000 2052.471680,488.000153 
	C2052.118652,487.554199 2052.071533,487.108063 2052.095215,486.331177 
	C2052.754639,486.461914 2053.343018,486.923462 2053.965820,487.692505 
z"/>
<path fill="#FBA81F" opacity="1.000000" stroke="none" 
	d="
M2132.224609,255.860016 
	C2131.679688,255.081802 2131.483398,254.198578 2131.572510,252.673019 
	C2132.096191,253.272125 2132.334473,254.513565 2132.224609,255.860016 
z"/>
<path fill="#FBA81F" opacity="1.000000" stroke="none" 
	d="
M2132.032715,286.632202 
	C2131.415771,285.640076 2131.284912,284.488556 2131.345215,282.772644 
	C2131.863770,283.629791 2132.191162,285.051300 2132.032715,286.632202 
z"/>
<path fill="#FBA91E" opacity="1.000000" stroke="none" 
	d="
M2131.990234,406.684357 
	C2131.729248,405.726959 2131.829102,404.651215 2132.367920,403.631561 
	C2132.655029,404.647125 2132.502930,405.606567 2131.990234,406.684357 
z"/>
<path fill="#FFFFFF" opacity="1.000000" stroke="none" 
	d="
M1212.406006,189.570251 
	C1212.114624,190.109924 1211.675171,190.424744 1211.235596,190.739594 
	C1211.276123,190.199951 1211.316528,189.660324 1211.637451,189.024048 
	C1212.031128,189.066757 1212.144409,189.206070 1212.406006,189.570251 
z"/>
<path fill="#FBA91E" opacity="1.000000" stroke="none" 
	d="
M2131.025391,413.481812 
	C2131.307617,413.052795 2131.615234,413.105560 2132.375244,413.280823 
	C2132.664551,414.114197 2132.501709,414.825104 2132.000488,415.667816 
	C2131.458740,415.187653 2131.254883,414.575623 2131.025391,413.481812 
z"/>
<path fill="#FFFFFF" opacity="1.000000" stroke="none" 
	d="
M1206.593994,198.429718 
	C1206.885254,197.890015 1207.324829,197.575180 1207.764404,197.260391 
	C1207.723999,197.800049 1207.683594,198.339691 1207.362549,198.975952 
	C1206.968872,198.933243 1206.855591,198.793930 1206.593994,198.429718 
z"/>
<path fill="#FBA91E" opacity="1.000000" stroke="none" 
	d="
M2132.001953,271.623169 
	C2131.398926,270.988678 2131.282471,270.193726 2131.335205,268.807617 
	C2131.832520,269.298553 2132.160645,270.380615 2132.001953,271.623169 
z"/>
<path fill="#FBA91E" opacity="1.000000" stroke="none" 
	d="
M2132.001953,419.623169 
	C2131.398926,418.988678 2131.282471,418.193695 2131.335205,416.807617 
	C2131.832520,417.298553 2132.160645,418.380615 2132.001953,419.623169 
z"/>
<path fill="#FBA91E" opacity="1.000000" stroke="none" 
	d="
M2132.878906,259.385925 
	C2132.373779,259.668121 2131.919678,259.599152 2131.677734,259.180237 
	C2132.150879,258.678009 2132.411621,258.525726 2132.672363,258.373444 
	C2132.757812,258.593872 2132.843506,258.814331 2132.878906,259.385925 
z"/>
<path fill="#FBA91E" opacity="1.000000" stroke="none" 
	d="
M2131.000000,422.000000 
	C2131.057129,421.697418 2131.114258,421.394867 2131.389160,420.681152 
	C2131.607422,420.270050 2131.728516,420.362823 2131.741455,420.379608 
	C2131.878906,420.650879 2132.003418,420.905334 2131.813965,421.579895 
	C2131.500000,422.000000 2131.000000,422.000000 2131.000000,422.000000 
z"/>
<path fill="#FBA81F" opacity="1.000000" stroke="none" 
	d="
M2132.600586,258.105865 
	C2132.411621,258.525726 2132.150879,258.678009 2131.444824,258.915161 
	C2131.061035,258.688782 2131.121826,258.377594 2131.421387,257.643768 
	C2131.949951,257.426849 2132.239502,257.632568 2132.600586,258.105865 
z"/>
<path fill="#FBA81F" opacity="1.000000" stroke="none" 
	d="
M2131.840820,392.566956 
	C2131.324951,392.323151 2131.261963,391.914948 2131.285645,390.888306 
	C2131.679688,390.980804 2131.986572,391.691681 2131.840820,392.566956 
z"/>
<path fill="#FBA81F" opacity="1.000000" stroke="none" 
	d="
M2132.766602,407.294250 
	C2132.507324,407.711151 2132.209717,407.788208 2131.456055,407.932617 
	C2131.062256,407.686157 2131.124756,407.372314 2131.432129,406.633514 
	C2132.027588,406.457184 2132.377930,406.705811 2132.766602,407.294250 
z"/>
<path fill="#FBA91E" opacity="1.000000" stroke="none" 
	d="
M2132.886475,402.983582 
	C2132.435547,403.000885 2132.331299,402.733368 2132.662354,402.193665 
	C2132.971680,402.266937 2133.016846,402.526031 2132.886475,402.983582 
z"/>
<path fill="#000000" opacity="1.000000" stroke="none" 
	d="
M1265.088135,472.000000 
	C1294.542236,472.000000 1323.507690,472.000000 1353.000000,472.000000 
	C1353.000000,470.138245 1353.000000,468.534027 1353.000000,466.929779 
	C1353.000000,404.276001 1353.230103,341.620850 1352.848633,278.969391 
	C1352.744995,261.952911 1348.695923,245.790268 1335.170898,233.648621 
	C1327.159668,226.456787 1317.686890,221.771667 1307.277100,220.207153 
	C1294.833618,218.337036 1282.159790,217.222260 1269.585571,217.220062 
	C1257.138062,217.217896 1244.767578,219.100388 1234.176636,226.937286 
	C1228.005859,231.503433 1224.193970,237.614990 1221.000610,244.491653 
	C1221.000610,236.738190 1219.767822,228.717682 1221.372070,221.311768 
	C1222.776123,214.830765 1227.006348,208.815613 1230.621338,202.987457 
	C1241.357422,185.677826 1253.682861,169.623657 1267.610352,154.652405 
	C1284.285522,136.727768 1302.955322,121.517578 1323.912842,109.018394 
	C1341.553955,98.497070 1360.419922,90.987839 1380.403809,86.233452 
	C1395.787231,82.573578 1411.505127,81.872643 1427.041626,83.218079 
	C1452.743896,85.443863 1476.278931,94.699738 1496.692749,110.474632 
	C1512.972046,123.054588 1526.031982,138.691589 1536.409546,156.672714 
	C1547.052002,175.112808 1554.060059,194.826538 1558.597290,215.424744 
	C1560.861572,225.703918 1562.057251,236.286346 1562.872192,246.798599 
	C1563.766724,258.337830 1564.217529,269.970276 1563.879272,281.533356 
	C1563.274292,302.212830 1559.834351,322.552856 1554.753418,342.607300 
	C1548.541626,367.124664 1539.638550,390.665192 1527.899414,413.023804 
	C1517.373779,433.071350 1505.301392,452.210236 1490.213257,469.238464 
	C1482.780029,477.627228 1475.515137,486.244690 1467.374268,493.909088 
	C1453.176758,507.275452 1437.700806,519.054932 1420.703857,528.804688 
	C1403.010376,538.953979 1384.271606,546.592102 1364.383179,550.598389 
	C1350.523071,553.390503 1336.432251,554.747009 1321.953735,553.287720 
	C1303.163940,551.393799 1285.447876,546.735535 1268.940308,537.896484 
	C1253.323242,529.534180 1239.171143,519.050293 1228.340210,504.765717 
	C1220.478149,494.396698 1213.023438,483.718842 1205.387085,473.178741 
	C1205.748657,472.789917 1206.110229,472.401093 1206.471924,472.012268 
	C1211.844360,472.012268 1217.216797,472.012268 1223.000000,472.012268 
	C1223.000000,469.857147 1223.000000,468.072266 1223.000000,466.287415 
	C1223.000000,409.632416 1223.141357,352.976685 1222.842896,296.323242 
	C1222.799683,288.122223 1229.018188,280.946381 1237.383789,281.936340 
	C1240.670410,282.325256 1244.043945,281.917480 1247.373657,282.016785 
	C1254.869385,282.240295 1259.057983,285.745728 1259.046265,293.625702 
	C1258.960327,351.113739 1259.000000,408.601959 1259.000000,466.090118 
	C1259.000000,467.895081 1259.000000,469.700043 1259.000000,472.000000 
	C1261.052124,472.000000 1262.825806,472.000000 1265.088135,472.000000 
z"/>
<path fill="#000000" opacity="1.000000" stroke="none" 
	d="
M3253.023926,322.000000 
	C3258.684814,322.000061 3263.852051,321.925201 3269.015869,322.022583 
	C3273.612061,322.109253 3277.848633,325.782104 3277.939941,330.151062 
	C3278.130371,339.271393 3277.997803,348.398529 3277.997803,357.758667 
	C3263.653320,357.758667 3249.710938,357.758667 3235.139404,357.758667 
	C3235.139404,347.818726 3234.745361,337.721771 3235.334473,327.682556 
	C3235.569092,323.685120 3239.895752,322.473450 3243.537598,322.068207 
	C3246.500488,321.738556 3249.529053,322.000458 3253.023926,322.000000 
z"/>
<path fill="#000000" opacity="1.000000" stroke="none" 
	d="
M355.621094,278.000000 
	C364.004517,279.247345 366.998108,282.581390 366.999542,290.171570 
	C367.001404,299.957367 367.000000,309.743164 367.000000,319.762756 
	C350.292389,319.762756 333.901947,319.762756 317.010010,319.762756 
	C317.010010,308.632202 316.746826,297.530884 317.123352,286.451294 
	C317.305847,281.080688 321.696808,278.093628 328.199005,278.024109 
	C337.186462,277.928040 346.175720,278.000000 355.621094,278.000000 
z"/>
<path fill="#000000" opacity="1.000000" stroke="none" 
	d="
M2827.000000,395.000000 
	C2827.000000,403.818115 2826.921875,412.137207 2827.021240,420.454132 
	C2827.130859,429.645813 2823.539795,432.858368 2815.559326,433.802856 
	C2810.946289,434.348846 2806.033447,433.607452 2801.435303,432.613281 
	C2798.095459,431.891174 2795.996826,429.132080 2795.997559,425.328064 
	C2796.003174,394.717346 2795.887451,364.105408 2796.222412,333.498352 
	C2796.248535,331.108673 2799.088623,327.110992 2801.180176,326.699249 
	C2806.787109,325.595337 2812.850098,325.136597 2818.448486,326.089264 
	C2825.252930,327.247192 2826.983643,330.381805 2826.991699,337.104889 
	C2827.014648,356.236572 2827.000000,375.368286 2827.000000,395.000000 
z"/>
<path fill="#000000" opacity="1.000000" stroke="none" 
	d="
M1908.000000,349.942749 
	C1908.000000,352.745392 1908.000000,355.057251 1908.000000,357.683472 
	C1893.685181,357.683472 1879.624512,357.683472 1865.020020,357.683472 
	C1865.020020,347.909393 1864.700684,338.122437 1865.165039,328.372864 
	C1865.373901,323.988525 1869.497803,322.249786 1873.326904,322.106598 
	C1882.146851,321.776733 1890.990356,321.870575 1899.818604,322.058105 
	C1904.197388,322.151123 1907.901489,326.364868 1907.975464,330.954590 
	C1908.074707,337.118927 1908.000000,343.286041 1908.000000,349.942749 
z"/>
<path fill="#000000" opacity="1.000000" stroke="none" 
	d="
M2285.806396,322.097504 
	C2294.709961,322.013763 2303.188477,322.106445 2311.663330,321.966492 
	C2317.739990,321.866119 2322.703369,325.162231 2322.148682,332.318451 
	C2321.508789,340.576874 2322.000000,348.922913 2322.000000,357.615295 
	C2307.852783,357.615295 2293.815186,357.615295 2279.112549,357.615295 
	C2279.112549,348.186310 2278.717773,338.442047 2279.398682,328.773560 
	C2279.562500,326.444977 2283.290771,324.367401 2285.806396,322.097504 
z"/>
<path fill="#FBA91E" opacity="1.000000" stroke="none" 
	d="
M2131.107910,422.219330 
	C2131.000000,422.000000 2131.500000,422.000000 2131.750000,422.000000 
	C2132.000000,422.000000 2132.000000,422.500000 2132.000000,422.750000 
	C2131.676758,422.899384 2131.415283,422.712280 2131.107910,422.219330 
z"/>
</svg>